<svg width="31" height="31" viewBox="0 0 31 31" fill="none" xmlns="http://www.w3.org/2000/svg">
<path d="M15.495 30.9951C23.97 30.9951 30.99 23.9902 30.99 15.5002C30.99 7.02513 23.97 0.00512695 15.48 0.00512695C7.005 0.00512695 0 7.02513 0 15.5002C0 23.9902 7.02 30.9951 15.495 30.9951ZM6.465 6.06513C7.965 4.64013 9.78 3.54513 11.805 2.94513C10.74 4.01013 9.84 5.51013 9.165 7.34012C8.115 7.01013 7.21501 6.57513 6.465 6.06513ZM19.2001 2.96013C21.21 3.56013 23.025 4.64013 24.51 6.06513C23.775 6.59012 22.8751 7.01013 21.825 7.35512C21.15 5.51013 20.25 4.01013 19.2001 2.96013ZM16.545 3.44013C17.79 4.04013 18.93 5.66012 19.74 7.86513C18.75 8.04512 17.685 8.15013 16.545 8.19512V3.44013ZM11.25 7.86513C12.075 5.66012 13.2001 4.04013 14.445 3.44013V8.19512C13.305 8.15013 12.24 8.04512 11.25 7.86513ZM2.445 14.4502C2.65501 11.9001 3.61501 9.54513 5.085 7.61013C6 8.28512 7.185 8.87013 8.565 9.30513C8.17501 10.8651 7.92 12.6051 7.845 14.4502H2.445ZM23.145 14.4502C23.07 12.6051 22.815 10.8651 22.425 9.30513C23.805 8.87013 24.99 8.30012 25.89 7.61013C27.375 9.54513 28.335 11.9001 28.545 14.4502H23.145ZM9.99 14.4502C10.065 12.8151 10.29 11.2551 10.635 9.84512C11.835 10.0851 13.1099 10.2351 14.445 10.2951V14.4502H9.99ZM16.545 14.4502V10.2951C17.88 10.2351 19.155 10.0851 20.355 9.84512C20.7 11.2551 20.925 12.8151 21 14.4502H16.545ZM2.445 16.5502H7.845C7.92 18.4251 8.17501 20.1801 8.565 21.7552C7.2 22.1901 6.03 22.7601 5.13 23.4352C3.63 21.4851 2.65501 19.1152 2.445 16.5502ZM9.99 16.5502H14.445V20.7802C13.125 20.8401 11.835 20.9901 10.65 21.2151C10.29 19.7901 10.05 18.2001 9.99 16.5502ZM16.545 20.7802V16.5502H21C20.94 18.2001 20.7 19.7901 20.34 21.2151C19.155 20.9901 17.88 20.8401 16.545 20.7802ZM22.425 21.7552C22.83 20.1801 23.07 18.4251 23.145 16.5502H28.545C28.335 19.1152 27.3601 21.4851 25.86 23.4352C24.9601 22.7601 23.79 22.1901 22.425 21.7552ZM16.545 22.8801C17.6699 22.9251 18.735 23.0302 19.71 23.2101C18.9 25.3701 17.775 26.9751 16.545 27.5601V22.8801ZM11.28 23.2101C12.255 23.0302 13.32 22.9251 14.445 22.8801V27.5601C13.215 26.9751 12.09 25.3701 11.28 23.2101ZM6.50999 24.9801C7.245 24.4702 8.145 24.0502 9.18 23.7201C9.85501 25.5201 10.74 26.9901 11.775 28.0401C9.795 27.4401 7.995 26.3752 6.50999 24.9801ZM21.81 23.7201C22.845 24.0502 23.745 24.4702 24.4801 24.9801C22.995 26.3752 21.1949 27.4401 19.215 28.0401C20.25 26.9901 21.135 25.5201 21.81 23.7201Z" fill="currentColor"/>
</svg>
